<svg xmlns="http://www.w3.org/2000/svg" xmlns:xlink="http://www.w3.org/1999/xlink" version="1.1" x="0px" y="0px" viewBox="0 0 100 125" enable-background="new 0 0 100 100" xml:space="preserve"><g><path d="M93.288,20.419l1.454-2.706c0.126-0.235,0.141-0.515,0.038-0.761l-3.282-7.94c-0.089-0.214-0.257-0.386-0.47-0.477   l-5.108-2.204l-0.51-2.239c-0.083-0.37-0.392-0.646-0.769-0.687c-0.214-0.023-5.32-0.469-18.355,8.878l-9.789-3.184   c-0.187-0.061-0.389-0.057-0.575,0.008l-11.756,4.2l-13.599,2.138l-8.356-4.435c-0.135-0.071-0.287-0.103-0.438-0.104   c-1.974,0-10.045,1.153-10.389,1.203c-0.307,0.044-0.568,0.244-0.691,0.529l-2.619,6.071c-0.195,0.451,0.013,0.975,0.465,1.17   c0.451,0.198,0.976-0.013,1.17-0.465l2.422-5.612c2.871-0.406,7.82-1.059,9.448-1.111l8.416,4.467   c0.17,0.091,0.365,0.124,0.556,0.093l13.975-2.197c0.055-0.009,0.109-0.022,0.161-0.041l11.548-4.126l9.929,3.23   c0.271,0.087,0.566,0.04,0.797-0.125C77.048,6.7,82.192,5.432,83.84,5.217l0.444,1.95c0.063,0.277,0.254,0.507,0.515,0.62   l5.191,2.24l2.225,5.385l-4.199-3.015l-4.72-0.2l-1.954-3.048l-12.703,6.495l8.848,2.118v4.979l9.58,21.901l-5.297,0.62l1.981,6.76   l-9.655,3.152l-5.457-2.503l3.157-0.891l-10.199-9.676l6.861-0.474l-8.687-14.615l-4.856-1.058l-3.429,0.626l-7.651,3.097   l10.91,5.785l2.142,3.083H54.36l4.252,8.466l2.265,13.949l-2.573-5.097l1.931,17.53l-9.137,14.233l-5.022,3.261l-3.601-0.55   c-0.321-0.047-0.644,0.081-0.842,0.34l-1.497,1.958l-3.161-2.794l-3.537-4.572l-1.113-6.144l-0.367-3.81l-0.894-3.15l-0.069-0.379   c-0.022-0.122-0.069-0.233-0.133-0.331l-1.098-3.869l-5.621-9.22l-1.269-11.344l0.696-3.122l1.279-3.998l-0.003,0.013l1.531,2.077   l1.358,0.035l-0.593,0.075l2.295,1.074l-0.651,1.521l1.723-0.214l-2.903,6.093l2.916-1.98l3.836-0.979l2.183,0.28l3.192-1.455   l5.074,0.036l-4.193-2.935l3.053-2.399c-0.408-0.353-3.515-0.682-3.515-0.682l3.718-3.827l-0.875-2.733l-5.123-5.139l-7.835,1.277   l-4.917-0.726l-4.387,4.406l-0.038,4.26l-2.58,5.902l3.46,0.055l0.401,9.617l-0.815,7.591l-2.774-3.768   c-0.11-0.15-0.265-0.261-0.442-0.317l-3.322-1.051c1.766-4.166,1.468-12.074,1.454-12.437c-0.02-0.485-0.427-0.872-0.914-0.842   c-0.485,0.02-0.862,0.429-0.842,0.914c0.103,2.536-0.002,9.711-1.696,12.426c-0.143,0.23-0.173,0.514-0.079,0.769   c0.094,0.255,0.3,0.452,0.559,0.534l4.036,1.277l3.742,5.082l-0.002,0.022l0.193,0.238l6.24,8.476   c0.172,0.234,0.438,0.358,0.708,0.358c0.071,0,0.141-0.016,0.211-0.033l0.667,0.82l1.237,3.427l1.588,8.763   c0.025,0.141,0.084,0.273,0.172,0.386L35.618,91c0.034,0.044,0.073,0.085,0.115,0.122l3.94,3.483   c0.163,0.145,0.374,0.224,0.59,0.224c0.029,0,0.057-0.001,0.087-0.004c0.246-0.024,0.471-0.149,0.621-0.345l1.757-2.299   l3.415,0.522c0.218,0.033,0.437-0.014,0.619-0.133l5.467-3.55c0.106-0.069,0.196-0.16,0.264-0.266l9.824-15.303l1.269-0.587   l4.759-2.894l10.386-4.759l-1.166-3.439l6.184-6.049l3.481-1.172l-1.998-6.651l4.348-1.455L86.74,33.308l2.416-4.543L93.288,20.419   z M52.485,28.308l1.228,0.65c0.175,0.143,0.298,0.347,0.298,0.59c0,0.433-0.351,0.783-0.783,0.783c-0.43,0-0.777-0.347-0.782-0.776   c-0.394,0.398-0.638,0.945-0.638,1.549c0,0.172,0.024,0.338,0.062,0.499l-3.381-1.886C48.567,29.543,52.485,28.308,52.485,28.308z    M54.705,33.185c0.874-0.292,1.509-1.108,1.509-2.081c0-0.336-0.081-0.651-0.216-0.937l1.109,0.587l1.505,4.61L54.705,33.185z    M22.838,41.01c0-0.183-0.058-1.991-0.105-3.432c0.327,0.23,0.719,0.368,1.143,0.391L22.838,41.01z M25.671,32.717l-0.426,1.248   c-0.245-0.169-0.525-0.288-0.828-0.346l0.18-0.223L25.671,32.717z"/><path d="M16.561,37.182l-0.098-9.059l0.715-1.157l1.028-1.565l2.571-3.505l6.61-3.376l-4.712-2.577l-2.157-0.879l-7.147,0.891   l-2.6,5.26l-0.889,4.162l4.844,4.599l0.077,7.083c-0.251,0.767-1.712,4.966-4.735,8.996c-0.291,0.388-0.213,0.939,0.175,1.23   c0.158,0.119,0.343,0.176,0.527,0.176c0.267,0,0.531-0.121,0.704-0.351c3.51-4.679,4.989-9.462,5.05-9.663   C16.549,37.361,16.562,37.272,16.561,37.182z"/><path d="M36.707,49.334l-2.348-0.54l-3.827,1.303l-3.74,3.563l0.988,4.448l4.391,7.941l1.531,5.576l0.656,3.171l0.875,9.755   l4.501,4.702l5.171-0.673l3.905-1.673l4.573-9.377v-4.483l1.531-1.531V53.147l-0.984,0.328l-3.061-3.379v0.973l-1.859-2.406   l-0.984,0.766l-5.08-1.531h-2.845L36.707,49.334z M38.049,77.185l-1.018,0.694l-0.948-1.041l-1.063-7.492l2.763,5.06l1.049,1.729   L38.049,77.185z M40.202,77.879h-0.744v-0.965h0.901L40.202,77.879z M41.534,77.879h-0.921v-0.965h0.921V77.879z M42.631,77.879   h-0.724v-0.965h0.724V77.879z M48.489,67.663l1.212,6.626l-1.182,2.896l-1.253-0.289l-0.62-0.76l-0.529,2.149l-1.097-0.406   l-0.392-0.887v-0.856h2.017l-0.325-0.397l1.369-1.978L48.489,67.663z M47.66,51.918l-0.849,3.334l-1.709,5.712l-0.426-5.787   l-1.284-4.407L47.66,51.918z M42.944,76.522h1.449l-0.274,1.567l-1.175-0.353V76.522z M42.631,50.629l-0.761,2.82l-1.371-2.147   l-0.744,2.186l-1.31-2.098l-0.021,1.52l-1.321-0.571l0.044-0.629l-0.885,0.222l0.125,1.321l-0.901,0.431l-0.716-1.16l-0.175,2.179   l-1.836-1.612l0.146,2.16l-1.727-2.69c0.015,0.074,2.213,9.197,2.367,9.427c0.154,0.231-4.6-5.814-4.6-5.814l-0.495-1.777   l2.728-1.836l3.418-1.619l2.183,0.431l3.8-1.307L42.631,50.629z"/><path d="M41.69,27.403c0.087,0,0.177-0.02,0.26-0.062l7.69-3.875c0.286-0.144,0.4-0.492,0.257-0.777   c-0.144-0.285-0.492-0.4-0.777-0.257l-7.69,3.875c-0.286,0.144-0.4,0.492-0.257,0.777C41.274,27.286,41.478,27.403,41.69,27.403z"/><path d="M25.355,26.727c-0.054,0.315,0.158,0.614,0.473,0.668l5.142,0.879c0.033,0.006,0.066,0.008,0.098,0.008   c0.277,0,0.521-0.199,0.57-0.481c0.054-0.315-0.158-0.614-0.473-0.668l-5.142-0.879C25.711,26.203,25.409,26.411,25.355,26.727z"/></g><text x="0" y="115" fill="#000000" font-size="5px" font-weight="bold" font-family="'Helvetica Neue', Helvetica, Arial-Unicode, Arial, Sans-serif">Created by Viktor Goncharenko</text><text x="0" y="120" fill="#000000" font-size="5px" font-weight="bold" font-family="'Helvetica Neue', Helvetica, Arial-Unicode, Arial, Sans-serif">from the Noun Project</text></svg>